<svg width="24" height="24" viewBox="0 0 24 24" fill="none" xmlns="http://www.w3.org/2000/svg">
<path fill-rule="evenodd" clip-rule="evenodd" d="M1 2.5C1 1.94772 1.44772 1.5 2 1.5H10.5C11.0523 1.5 11.5 1.94772 11.5 2.5V10.5C11.5 11.0523 11.0523 11.5 10.5 11.5H2C1.44772 11.5 1 11.0523 1 10.5V2.5ZM3 3.5V9.5H9.5V3.5H3Z" fill="black"/>
<path fill-rule="evenodd" clip-rule="evenodd" d="M1 13.5C1 12.9477 1.44772 12.5 2 12.5H10.5C11.0523 12.5 11.5 12.9477 11.5 13.5V21.5C11.5 22.0523 11.0523 22.5 10.5 22.5H2C1.44772 22.5 1 22.0523 1 21.5V13.5ZM3 14.5V20.5H9.5V14.5H3Z" fill="black"/>
<path fill-rule="evenodd" clip-rule="evenodd" d="M12.5 2.5C12.5 1.94772 12.9477 1.5 13.5 1.5H22C22.5523 1.5 23 1.94772 23 2.5V10.5C23 11.0523 22.5523 11.5 22 11.5H13.5C12.9477 11.5 12.5 11.0523 12.5 10.5V2.5ZM14.5 3.5V9.5H21V3.5H14.5Z" fill="black"/>
<path fill-rule="evenodd" clip-rule="evenodd" d="M12.5 13.5C12.5 12.9477 12.9477 12.5 13.5 12.5H22C22.5523 12.5 23 12.9477 23 13.5V21.5C23 22.0523 22.5523 22.5 22 22.5H13.5C12.9477 22.5 12.5 22.0523 12.5 21.5V13.5ZM14.5 14.5V20.5H21V14.5H14.5Z" fill="black"/>
</svg>
