<svg width="16" height="16" viewBox="0 0 16 16" fill="none" xmlns="http://www.w3.org/2000/svg">
<path d="M14.537 6.69434H14V6.66668H8V9.33334H11.7677C11.218 10.8857 9.741 12 8 12C5.791 12 3.99999 10.209 3.99999 8.00001C3.99999 5.79101 5.791 4.00001 8 4.00001C9.01966 4.00001 9.94733 4.38468 10.6537 5.01301L12.5393 3.12734C11.3487 2.01768 9.75599 1.33334 8 1.33334C4.31833 1.33334 1.33333 4.31834 1.33333 8.00001C1.33333 11.6817 4.31833 14.6667 8 14.6667C11.6817 14.6667 14.6667 11.6817 14.6667 8.00001C14.6667 7.55301 14.6207 7.11668 14.537 6.69434Z" fill="#FFC107"/>
<path d="M2.10201 4.89701L4.29234 6.50334C4.885 5.03601 6.32034 4.00001 8.00001 4.00001C9.01967 4.00001 9.94734 4.38468 10.6537 5.01301L12.5393 3.12734C11.3487 2.01768 9.75601 1.33334 8.00001 1.33334C5.43934 1.33334 3.21867 2.77901 2.10201 4.89701Z" fill="#FF3D00"/>
<path d="M8 14.6667C9.722 14.6667 11.2867 14.0077 12.4697 12.936L10.4063 11.19C9.71451 11.7161 8.86915 12.0007 8 12C6.266 12 4.79367 10.8943 4.239 9.35132L2.065 11.0263C3.16834 13.1853 5.409 14.6667 8 14.6667Z" fill="#4CAF50"/>
<path d="M14.537 6.69432H14V6.66666H8V9.33332H11.7677C11.5047 10.0721 11.0311 10.7177 10.4053 11.1903L10.4063 11.1897L12.4697 12.9357C12.3237 13.0683 14.6667 11.3333 14.6667 7.99999C14.6667 7.55299 14.6207 7.11666 14.537 6.69432Z" fill="#1976D2"/>
</svg>
