<svg width="21" height="17" viewBox="0 0 21 17" fill="none" xmlns="http://www.w3.org/2000/svg">
<path d="M1.0744 6.46253C0.424 6.73553 0.0203004 7.22152 0.0142004 7.90952C0.0100004 8.39052 0.334599 9.03655 0.984999 9.30055C1.2529 9.40955 5.0144 9.91554 5.0144 9.91554C5.0144 9.91554 6.01 13.0625 6.3688 14.1685C6.4727 14.4885 6.5319 14.6455 6.7599 14.8545C7.1467 15.2085 7.8006 15.0976 8.0834 14.8136C8.8316 14.0636 10.0142 12.9065 10.0142 12.9065L10.5119 13.3115C10.5119 13.3115 12.722 15.0745 13.9301 15.9045C14.6414 16.3935 15.1351 16.9035 15.9357 16.9065C16.3435 16.9085 16.9976 16.7055 17.43 16.2105C17.7157 15.8835 17.899 15.3605 17.9699 14.8915C18.1311 13.8265 20.0222 2.31054 20.0142 1.90753C20.0014 1.26453 19.4605 0.902527 19.0109 0.906527C18.7285 0.909527 18.4958 0.991538 17.978 1.14954C13.9726 2.37254 1.3397 6.35153 1.0744 6.46253ZM16.0142 3.90653C16.0142 3.90653 10.7362 8.50054 8.6271 10.6145C7.9514 11.2915 7.9037 12.4535 7.9037 12.4535L6.8135 8.96552L16.0142 3.90653Z" fill="#2A343D"/>
</svg>
